<svg width="19" height="17" viewBox="0 0 19 17" fill="none" xmlns="http://www.w3.org/2000/svg">
<path d="M11.1857 0H6.84386C3.05398 0 0 3.05398 0 6.82546C0 6.82546 0 6.82546 0 6.84386C0 10.229 2.48366 13.099 5.85039 13.5957C5.99757 14.4972 5.94238 15.4171 5.68482 16.3001C5.61123 16.5945 5.7768 16.8889 6.07116 16.9809C6.19994 17.0177 6.32873 16.9993 6.45751 16.9441C7.59815 16.3737 9.21713 15.3067 10.0634 13.6693H11.2041C14.9571 13.6693 18.0295 10.6153 18.0295 6.84386C18.0295 3.07238 14.9755 0 11.1857 0C11.2041 0 11.2041 0 11.1857 0ZM9.49309 10.321V10.9281C9.49309 11.2408 9.23553 11.48 8.94117 11.48C8.64681 11.48 8.38924 11.2225 8.38924 10.9281V10.413C7.92931 10.3946 7.46937 10.321 7.02783 10.1738C6.69668 10.0634 6.5127 9.71386 6.58629 9.3827L6.60469 9.32751C6.67828 9.03315 6.93584 8.84918 7.2302 8.84918C7.30379 8.84918 7.37738 8.86758 7.45097 8.88597C7.85572 9.01476 8.26046 9.08835 8.6836 9.10674C9.32751 9.10674 9.78745 8.84918 9.78745 8.40764C9.78745 7.9661 9.4195 7.70854 8.57322 7.41418C7.35898 7.00943 6.5311 6.43911 6.5311 5.33526C6.5311 4.3234 7.2302 3.55071 8.46283 3.31154V2.77802C8.46283 2.46526 8.7204 2.22609 9.01476 2.22609C9.30912 2.22609 9.56668 2.48366 9.56668 2.77802V3.21956C9.91623 3.23795 10.2658 3.27475 10.6153 3.36674C10.9649 3.45872 11.1673 3.82667 11.0753 4.17622C11.0017 4.45219 10.7441 4.65456 10.4498 4.65456C10.3946 4.65456 10.321 4.65456 10.2658 4.63616C9.91623 4.50738 9.56668 4.45219 9.23553 4.45219C8.49963 4.45219 8.26046 4.76494 8.26046 5.0961C8.26046 5.46405 8.66521 5.72161 9.62187 6.07116C10.9833 6.5495 11.5168 7.17501 11.5168 8.20527C11.5168 9.23553 10.7993 10.0818 9.49309 10.321Z" fill="#74869C"/>
</svg>
