<svg width="16" height="16" viewBox="0 0 16 16" fill="none" xmlns="http://www.w3.org/2000/svg">
<path d="M15.2 4H12.96C13.36 3.6 13.6 3.04 13.6 2.4C13.6 1.04 12.56 0 11.2 0C10.4 0 8.96 0.72 8 1.68C7.04 0.72 5.6 0 4.8 0C3.44 0 2.4 1.04 2.4 2.4C2.4 3.04 2.64 3.6 3.04 4H0.8C0.32 4 0 4.32 0 4.8V7.04C0 7.12 0.08 7.2 0.16 7.2H6.88C7.04 7.2 7.2 7.04 7.2 6.88V4.32C7.2 4.16 7.36 4 7.52 4H8.48C8.64 4 8.8 4.16 8.8 4.32V6.88C8.8 7.04 8.96 7.2 9.12 7.2H15.84C15.92 7.2 16 7.12 16 7.04V4.8C16 4.32 15.68 4 15.2 4ZM4.8 3.2C4.32 3.2 4 2.88 4 2.4C4 1.92 4.32 1.6 4.8 1.6C5.28 1.6 6.72 2.56 7.12 3.04C6.88 3.12 4.8 3.2 4.8 3.2ZM11.2 3.2C11.2 3.2 9.12 3.12 8.88 3.04C9.36 2.48 10.72 1.6 11.2 1.6C11.68 1.6 12 1.92 12 2.4C12 2.88 11.68 3.2 11.2 3.2Z" fill="#74869C"/>
<path d="M6.87993 8.80002H0.959927C0.879927 8.80002 0.799927 8.88002 0.799927 8.96002V15.2C0.799927 15.68 1.11993 16 1.59993 16H6.87993C7.03993 16 7.19993 15.84 7.19993 15.68V9.12002C7.19993 8.96002 7.03993 8.80002 6.87993 8.80002Z" fill="#74869C"/>
<path d="M15.0399 8.80002H9.11993C8.95993 8.80002 8.79993 8.96002 8.79993 9.12002V15.68C8.79993 15.84 8.95993 16 9.11993 16H14.3999C14.8799 16 15.1999 15.68 15.1999 15.2V8.96002C15.1999 8.88002 15.1199 8.80002 15.0399 8.80002Z" fill="#74869C"/>
</svg>
