<svg width="16" height="16" viewBox="0 0 16 16" fill="none" xmlns="http://www.w3.org/2000/svg">
<path d="M15.0957 7.16522L8.13913 0.208696C7.86087 -0.0695652 7.44348 -0.0695652 7.16522 0.208696L0.208696 7.16522C-0.0695652 7.44348 -0.0695652 7.86087 0.208696 8.13913C0.347826 8.27826 0.486956 8.34783 0.626087 8.34783H1.46087V15.3043C1.46087 15.7217 1.73913 16 2.15652 16H6.05217V11.3391C6.05217 10.9217 6.33043 10.6435 6.74783 10.6435H8.41739C8.83478 10.6435 9.11304 10.9217 9.11304 11.3391V16H13.0087C13.4261 16 13.7043 15.7217 13.7043 15.3043V8.34783H14.6087C14.9565 8.27826 15.2348 7.93043 15.2348 7.58261C15.3043 7.44348 15.2348 7.30435 15.0957 7.16522Z" fill="#74869C"/>
</svg>
