<svg width="18" height="18" viewBox="0 0 18 18" fill="none" xmlns="http://www.w3.org/2000/svg">
<path d="M16.9826 8.06087L9.15652 0.234783C8.84348 -0.0782609 8.37391 -0.0782609 8.06087 0.234783L0.234783 8.06087C-0.0782609 8.37391 -0.0782609 8.84348 0.234783 9.15652C0.391304 9.31304 0.547826 9.3913 0.704348 9.3913H1.64348V17.2174C1.64348 17.687 1.95652 18 2.42609 18H6.8087V12.7565C6.8087 12.287 7.12174 11.9739 7.5913 11.9739H9.46957C9.93913 11.9739 10.2522 12.287 10.2522 12.7565V18H14.6348C15.1043 18 15.4174 17.687 15.4174 17.2174V9.3913H16.4348C16.8261 9.31304 17.1391 8.92174 17.1391 8.53043C17.2174 8.37391 17.1391 8.21739 16.9826 8.06087Z" fill="white"/>
</svg>
