<svg width="19" height="15" viewBox="0 0 19 15" fill="none" xmlns="http://www.w3.org/2000/svg">
<path fill-rule="evenodd" clip-rule="evenodd" d="M6.21228 8.09406C6.87817 7.79333 8.01663 6.99856 8.68252 6.54747C9.77801 5.83862 13.8163 3.19654 14.7829 2.63805C17.2746 1.24183 10.4439 6.9556 8.85436 8.56662C8.46771 8.97475 8.08107 9.23251 7.8233 9.51176C7.56554 9.83396 7.47962 11.6383 7.43666 12.1109L6.21228 8.09406ZM18.4131 0.833705C18.3272 1.34923 17.468 5.17273 17.2961 6.05342C16.931 7.79333 16.5658 9.49028 16.2006 11.2302C15.6851 13.7649 15.7495 15.5477 13.8378 14.1945C12.9356 13.5501 10.9594 12.025 10.1861 11.5524C9.32693 12.3042 7.35074 14.8818 6.79225 13.2064C6.49152 12.3472 5.54639 9.08215 5.2027 8.54514L1.74437 7.44965C-0.596986 6.7408 1.85177 5.88158 2.79691 5.5379L17.3606 0.103374C18.0909 -0.17587 18.4131 0.124854 18.4131 0.833705Z" fill="#3F56FF"/>
</svg>
