<svg width="104" height="28" viewBox="0 0 104 28" fill="none" xmlns="http://www.w3.org/2000/svg">
<path fill-rule="evenodd" clip-rule="evenodd" d="M8.56913 24.4091C4.07215 24.4091 0.225979 21.0689 0 16.7523V16.3454C0 9.23099 7.06976 8.38915 6.84378 0C14.3655 4.12243 13.404 11.0503 13.404 11.0503C13.404 11.0503 15.0095 10.2356 15.0095 8.1993C16.8761 11.1045 17.6964 13.9284 17.6964 16.3183V16.7251C17.4976 21.0645 13.6288 24.4091 9.09905 24.4091H8.56913Z" fill="white"/>
<path d="M32.3487 11.9961H28.9084V16.2743C28.9084 16.6265 28.9258 16.9522 28.9605 17.2515C28.9953 17.5332 29.0735 17.7797 29.1951 17.9909C29.3167 18.2022 29.4992 18.3695 29.7424 18.4927C30.003 18.5984 30.3419 18.6512 30.7589 18.6512C30.9674 18.6512 31.2367 18.6336 31.5668 18.5984C31.9143 18.5455 32.175 18.4399 32.3487 18.2814V21.5826C31.9143 21.741 31.4626 21.8467 30.9934 21.8995C30.5243 21.9523 30.0639 21.9787 29.6121 21.9787C28.9518 21.9787 28.3437 21.9083 27.7877 21.7674C27.2317 21.6266 26.7452 21.4065 26.3281 21.1072C25.9111 20.7903 25.581 20.3854 25.3377 19.8924C25.1119 19.3994 24.9989 18.8008 24.9989 18.0966V11.9961H22.4969V8.82698H24.9989V5.02407H28.9084V8.82698H32.3487V11.9961Z" fill="white"/>
<path d="M34.3354 8.82698H38.2449V10.8869H38.297C38.714 10.0946 39.2092 9.50481 39.7826 9.11748C40.356 8.71254 41.0771 8.51007 41.9459 8.51007C42.1717 8.51007 42.3976 8.51887 42.6235 8.53648C42.8494 8.55408 43.0579 8.5893 43.249 8.64211V12.2602C42.971 12.1721 42.693 12.1105 42.415 12.0753C42.1544 12.0225 41.8763 11.9961 41.581 11.9961C40.8338 11.9961 40.2431 12.1017 39.8087 12.313C39.3743 12.5243 39.0355 12.8236 38.7922 13.2109C38.5663 13.5806 38.4186 14.0296 38.3491 14.5578C38.2796 15.0859 38.2449 15.6669 38.2449 16.3008V21.6618H34.3354V8.82698Z" fill="white"/>
<path d="M56.4799 19.4434C55.8544 20.2533 55.0638 20.8783 54.1082 21.3185C53.1525 21.7586 52.1621 21.9787 51.137 21.9787C50.1639 21.9787 49.243 21.8203 48.3743 21.5034C47.5229 21.1864 46.7757 20.7375 46.1328 20.1565C45.5073 19.5579 45.0121 18.8448 44.6472 18.0174C44.2824 17.1899 44.0999 16.2655 44.0999 15.2444C44.0999 14.2232 44.2824 13.2989 44.6472 12.4714C45.0121 11.644 45.5073 10.9397 46.1328 10.3587C46.7757 9.7601 47.5229 9.30234 48.3743 8.98543C49.243 8.66852 50.1639 8.51007 51.137 8.51007C52.0405 8.51007 52.8571 8.66852 53.5869 8.98543C54.334 9.30234 54.9595 9.7601 55.4634 10.3587C55.9847 10.9397 56.3843 11.644 56.6623 12.4714C56.9403 13.2989 57.0793 14.2232 57.0793 15.2444V16.4856H48.0094C48.1658 17.2427 48.5046 17.8501 49.0258 18.3079C49.5471 18.748 50.19 18.9681 50.9545 18.9681C51.5974 18.9681 52.136 18.8272 52.5704 18.5455C53.0222 18.2462 53.4131 17.8677 53.7433 17.4099L56.4799 19.4434ZM53.1699 13.7919C53.1873 13.1229 52.9701 12.5507 52.5183 12.0753C52.0665 11.5999 51.4845 11.3623 50.7721 11.3623C50.3377 11.3623 49.9554 11.4327 49.6253 11.5735C49.2952 11.7144 49.0085 11.8992 48.7652 12.1281C48.5393 12.3394 48.3569 12.5947 48.2179 12.894C48.0963 13.1757 48.0268 13.475 48.0094 13.7919H53.1699Z" fill="white"/>
<path d="M59.4568 8.82698H63.2099V10.57H63.262C63.3836 10.3235 63.5574 10.077 63.7833 9.83052C64.0091 9.58404 64.2785 9.36397 64.5912 9.1703C64.904 8.97663 65.2602 8.81818 65.6598 8.69493C66.0594 8.57169 66.4938 8.51007 66.963 8.51007C67.9534 8.51007 68.7526 8.66852 69.3608 8.98543C69.9689 9.28474 70.438 9.70728 70.7682 10.2531C71.1157 10.7989 71.3503 11.4415 71.4719 12.1809C71.5935 12.9204 71.6543 13.7215 71.6543 14.5842V21.6618H67.7449V15.3764C67.7449 15.0067 67.7275 14.6282 67.6927 14.2408C67.6754 13.8359 67.5972 13.4662 67.4582 13.1317C67.3365 12.7971 67.1367 12.5243 66.8587 12.313C66.5981 12.1017 66.2158 11.9961 65.7119 11.9961C65.208 11.9961 64.7997 12.0929 64.487 12.2866C64.1742 12.4626 63.931 12.7091 63.7572 13.026C63.6008 13.3253 63.4966 13.6686 63.4444 14.056C63.3923 14.4433 63.3663 14.8483 63.3663 15.2708V21.6618H59.4568V8.82698Z" fill="white"/>
<path d="M87.7149 21.6618H84.1182V19.9716H84.0661C83.9097 20.2005 83.7012 20.4382 83.4405 20.6847C83.1973 20.9136 82.9019 21.1248 82.5544 21.3185C82.2243 21.5122 81.8507 21.6706 81.4337 21.7939C81.0341 21.9171 80.617 21.9787 80.1827 21.9787C79.2444 21.9787 78.393 21.8203 77.6285 21.5034C76.864 21.1688 76.2037 20.7111 75.6477 20.1301C75.109 19.5315 74.692 18.8272 74.3967 18.0174C74.1013 17.2075 73.9536 16.3184 73.9536 15.35C73.9536 14.4521 74.0839 13.5982 74.3445 12.7883C74.6225 11.9609 75.0048 11.2302 75.4913 10.5964C75.9952 9.96257 76.6033 9.4608 77.3157 9.09107C78.0281 8.70374 78.8361 8.51007 79.7396 8.51007C80.5562 8.51007 81.3121 8.64211 82.0071 8.90621C82.7195 9.15269 83.3015 9.58404 83.7533 10.2003H83.8054V1.69652H87.7149V21.6618ZM84.1182 15.2444C84.1182 14.2761 83.8402 13.4926 83.2842 12.894C82.7455 12.2954 81.981 11.9961 80.9906 11.9961C80.0002 11.9961 79.227 12.2954 78.671 12.894C78.1324 13.4926 77.863 14.2761 77.863 15.2444C77.863 16.2127 78.1324 16.9962 78.671 17.5948C79.227 18.1934 80.0002 18.4927 80.9906 18.4927C81.981 18.4927 82.7455 18.1934 83.2842 17.5948C83.8402 16.9962 84.1182 16.2127 84.1182 15.2444Z" fill="white"/>
<path d="M98.1371 23.7481C97.8764 24.4348 97.6245 25.0422 97.3813 25.5704C97.138 26.0985 96.8252 26.5387 96.443 26.8908C96.0781 27.2605 95.609 27.5334 95.0356 27.7095C94.4622 27.9032 93.7064 28 92.7681 28C91.7603 28 90.7873 27.8415 89.849 27.5246L90.3703 24.2763C90.961 24.5404 91.5692 24.6724 92.1947 24.6724C92.6291 24.6724 92.9853 24.6196 93.2633 24.514C93.5413 24.426 93.7672 24.2851 93.9409 24.0914C94.132 23.9154 94.2884 23.6953 94.4101 23.4312C94.5317 23.1671 94.662 22.859 94.801 22.5069L95.0877 21.7674L89.5363 8.82698H93.7585L97.0164 17.3043H97.0685L99.8572 8.82698H103.871L98.1371 23.7481Z" fill="white"/>
</svg>
