<svg width="151" height="25" viewBox="0 0 151 25" fill="none" xmlns="http://www.w3.org/2000/svg">
<path d="M147.976 2C146.344 2 145 3.344 145 4.976C145 6.608 146.344 7.952 147.976 7.952C149.608 7.952 150.952 6.608 150.952 4.976C150.952 3.344 149.584 2 147.976 2ZM147.976 7.568C146.56 7.568 145.384 6.392 145.384 4.976C145.384 3.56 146.56 2.384 147.976 2.384C149.392 2.384 150.568 3.56 150.568 4.976C150.568 6.392 149.392 7.568 147.976 7.568Z" fill="#586CFF"/>
<path d="M148.24 6.36805C148.24 6.48805 148.144 6.60805 148 6.60805H147.928C147.808 6.60805 147.688 6.51205 147.688 6.36805V4.37605C147.688 4.25605 147.784 4.13605 147.928 4.13605H148C148.12 4.13605 148.24 4.23205 148.24 4.37605V6.36805Z" fill="#586CFF"/>
<path d="M147.976 3.87199C148.122 3.87199 148.24 3.7538 148.24 3.60799C148.24 3.46219 148.122 3.34399 147.976 3.34399C147.83 3.34399 147.712 3.46219 147.712 3.60799C147.712 3.7538 147.83 3.87199 147.976 3.87199Z" fill="#586CFF"/>
<path d="M82.296 5.256H87.03C87.69 5.256 88.314 5.316 88.902 5.436C89.49 5.556 90 5.766 90.432 6.066C90.876 6.354 91.224 6.75 91.476 7.254C91.74 7.746 91.872 8.37 91.872 9.126C91.872 9.87 91.752 10.494 91.512 10.998C91.272 11.502 90.942 11.904 90.522 12.204C90.102 12.504 89.604 12.72 89.028 12.852C88.452 12.972 87.828 13.032 87.156 13.032H85.104V18H82.296V5.256ZM85.104 10.656H86.976C87.228 10.656 87.468 10.632 87.696 10.584C87.936 10.536 88.146 10.458 88.326 10.35C88.518 10.23 88.668 10.074 88.776 9.882C88.896 9.678 88.956 9.426 88.956 9.126C88.956 8.802 88.878 8.544 88.722 8.352C88.578 8.148 88.386 7.992 88.146 7.884C87.918 7.776 87.66 7.71 87.372 7.686C87.084 7.65 86.808 7.632 86.544 7.632H85.104V10.656ZM93.2919 9.252H95.9919V10.656H96.0279C96.3159 10.116 96.6579 9.714 97.0539 9.45C97.4499 9.174 97.9479 9.036 98.5479 9.036C98.7039 9.036 98.8599 9.042 99.0159 9.054C99.1719 9.066 99.3159 9.09 99.4479 9.126V11.592C99.2559 11.532 99.0639 11.49 98.8719 11.466C98.6919 11.43 98.4999 11.412 98.2959 11.412C97.7799 11.412 97.3719 11.484 97.0719 11.628C96.7719 11.772 96.5379 11.976 96.3699 12.24C96.2139 12.492 96.1119 12.798 96.0639 13.158C96.0159 13.518 95.9919 13.914 95.9919 14.346V18H93.2919V9.252ZM99.9816 13.626C99.9816 12.93 100.108 12.3 100.36 11.736C100.612 11.172 100.954 10.692 101.386 10.296C101.83 9.888 102.346 9.576 102.934 9.36C103.534 9.144 104.17 9.036 104.842 9.036C105.514 9.036 106.144 9.144 106.732 9.36C107.332 9.576 107.848 9.888 108.28 10.296C108.724 10.692 109.072 11.172 109.324 11.736C109.576 12.3 109.702 12.93 109.702 13.626C109.702 14.322 109.576 14.952 109.324 15.516C109.072 16.08 108.724 16.566 108.28 16.974C107.848 17.37 107.332 17.676 106.732 17.892C106.144 18.108 105.514 18.216 104.842 18.216C104.17 18.216 103.534 18.108 102.934 17.892C102.346 17.676 101.83 17.37 101.386 16.974C100.954 16.566 100.612 16.08 100.36 15.516C100.108 14.952 99.9816 14.322 99.9816 13.626ZM102.682 13.626C102.682 14.286 102.868 14.82 103.24 15.228C103.624 15.636 104.158 15.84 104.842 15.84C105.526 15.84 106.054 15.636 106.426 15.228C106.81 14.82 107.002 14.286 107.002 13.626C107.002 12.966 106.81 12.432 106.426 12.024C106.054 11.616 105.526 11.412 104.842 11.412C104.158 11.412 103.624 11.616 103.24 12.024C102.868 12.432 102.682 12.966 102.682 13.626ZM117.988 9.252H120.688V18H117.988V9.252ZM117.772 6.498C117.772 6.066 117.922 5.7 118.222 5.4C118.534 5.088 118.906 4.932 119.338 4.932C119.77 4.932 120.136 5.088 120.436 5.4C120.748 5.7 120.904 6.066 120.904 6.498C120.904 6.93 120.748 7.302 120.436 7.614C120.136 7.914 119.77 8.064 119.338 8.064C118.906 8.064 118.534 7.914 118.222 7.614C117.922 7.302 117.772 6.93 117.772 6.498ZM112.228 11.412H110.446V9.252H112.228V7.704C112.228 7.224 112.27 6.774 112.354 6.354C112.438 5.922 112.6 5.544 112.84 5.22C113.08 4.896 113.422 4.644 113.866 4.464C114.322 4.272 114.916 4.176 115.648 4.176C115.924 4.176 116.194 4.188 116.458 4.212C116.722 4.236 116.98 4.278 117.232 4.338L117.106 6.624C116.95 6.564 116.806 6.522 116.674 6.498C116.542 6.462 116.392 6.444 116.224 6.444C115.792 6.444 115.468 6.54 115.252 6.732C115.036 6.912 114.928 7.29 114.928 7.866V9.252H116.926V11.412H114.928V18H112.228V11.412ZM128.588 11.412H126.212V14.328C126.212 14.568 126.224 14.79 126.248 14.994C126.272 15.186 126.326 15.354 126.41 15.498C126.494 15.642 126.62 15.756 126.788 15.84C126.968 15.912 127.202 15.948 127.49 15.948C127.634 15.948 127.82 15.936 128.048 15.912C128.288 15.876 128.468 15.804 128.588 15.696V17.946C128.288 18.054 127.976 18.126 127.652 18.162C127.328 18.198 127.01 18.216 126.698 18.216C126.242 18.216 125.822 18.168 125.438 18.072C125.054 17.976 124.718 17.826 124.43 17.622C124.142 17.406 123.914 17.13 123.746 16.794C123.59 16.458 123.512 16.05 123.512 15.57V11.412H121.784V9.252H123.512V6.66H126.212V9.252H128.588V11.412ZM129.996 4.392H132.696V18H129.996V4.392ZM139.676 19.422C139.496 19.89 139.322 20.304 139.154 20.664C138.986 21.024 138.77 21.324 138.506 21.564C138.254 21.816 137.93 22.002 137.534 22.122C137.138 22.254 136.616 22.32 135.968 22.32C135.272 22.32 134.6 22.212 133.952 21.996L134.312 19.782C134.72 19.962 135.14 20.052 135.572 20.052C135.872 20.052 136.118 20.016 136.31 19.944C136.502 19.884 136.658 19.788 136.778 19.656C136.91 19.536 137.018 19.386 137.102 19.206C137.186 19.026 137.276 18.816 137.372 18.576L137.57 18.072L133.736 9.252H136.652L138.902 15.03H138.938L140.864 9.252H143.636L139.676 19.422Z" fill="#586CFF"/>
<path d="M1.056 7.504H3.576C3.968 7.504 4.34 7.544 4.692 7.624C5.052 7.696 5.368 7.824 5.64 8.008C5.92 8.184 6.14 8.424 6.3 8.728C6.468 9.024 6.552 9.392 6.552 9.832C6.552 10.296 6.464 10.68 6.288 10.984C6.112 11.288 5.884 11.528 5.604 11.704C5.332 11.88 5.032 12.004 4.704 12.076C4.376 12.148 4.064 12.184 3.768 12.184H2.064V16H1.056V7.504ZM2.064 11.248H3.768C4.272 11.248 4.68 11.136 4.992 10.912C5.312 10.68 5.472 10.324 5.472 9.844C5.472 9.364 5.312 9.012 4.992 8.788C4.68 8.556 4.272 8.44 3.768 8.44H2.064V11.248ZM7.43728 13.192C7.43728 12.752 7.51328 12.352 7.66528 11.992C7.81728 11.632 8.02528 11.324 8.28928 11.068C8.55328 10.804 8.86928 10.6 9.23728 10.456C9.60528 10.312 10.0053 10.24 10.4373 10.24C10.8693 10.24 11.2693 10.312 11.6373 10.456C12.0053 10.6 12.3213 10.804 12.5853 11.068C12.8493 11.324 13.0573 11.632 13.2093 11.992C13.3613 12.352 13.4373 12.752 13.4373 13.192C13.4373 13.632 13.3613 14.032 13.2093 14.392C13.0573 14.752 12.8493 15.064 12.5853 15.328C12.3213 15.584 12.0053 15.784 11.6373 15.928C11.2693 16.072 10.8693 16.144 10.4373 16.144C10.0053 16.144 9.60528 16.072 9.23728 15.928C8.86928 15.784 8.55328 15.584 8.28928 15.328C8.02528 15.064 7.81728 14.752 7.66528 14.392C7.51328 14.032 7.43728 13.632 7.43728 13.192ZM8.44528 13.192C8.44528 13.488 8.48928 13.764 8.57728 14.02C8.67328 14.268 8.80928 14.488 8.98528 14.68C9.16128 14.864 9.36928 15.012 9.60928 15.124C9.85728 15.228 10.1333 15.28 10.4373 15.28C10.7413 15.28 11.0133 15.228 11.2533 15.124C11.5013 15.012 11.7133 14.864 11.8893 14.68C12.0653 14.488 12.1973 14.268 12.2853 14.02C12.3813 13.764 12.4293 13.488 12.4293 13.192C12.4293 12.896 12.3813 12.624 12.2853 12.376C12.1973 12.12 12.0653 11.9 11.8893 11.716C11.7133 11.524 11.5013 11.376 11.2533 11.272C11.0133 11.16 10.7413 11.104 10.4373 11.104C10.1333 11.104 9.85728 11.16 9.60928 11.272C9.36928 11.376 9.16128 11.524 8.98528 11.716C8.80928 11.9 8.67328 12.12 8.57728 12.376C8.48928 12.624 8.44528 12.896 8.44528 13.192ZM20.6703 16H19.7463L18.1503 11.68H18.1263L16.7103 16H15.7503L13.9263 10.384H14.9583L16.2423 14.704H16.2663L17.7183 10.384H18.7023L20.1783 14.704H20.2023L21.4743 10.384H22.4823L20.6703 16ZM28.3168 14.98C27.9808 15.412 27.6128 15.716 27.2128 15.892C26.8128 16.06 26.3488 16.144 25.8208 16.144C25.3808 16.144 24.9848 16.068 24.6328 15.916C24.2808 15.756 23.9808 15.544 23.7328 15.28C23.4928 15.016 23.3048 14.704 23.1688 14.344C23.0408 13.984 22.9768 13.6 22.9768 13.192C22.9768 12.76 23.0488 12.364 23.1928 12.004C23.3368 11.636 23.5368 11.324 23.7928 11.068C24.0488 10.804 24.3528 10.6 24.7048 10.456C25.0568 10.312 25.4408 10.24 25.8568 10.24C26.2488 10.24 26.6088 10.308 26.9368 10.444C27.2648 10.572 27.5448 10.764 27.7768 11.02C28.0168 11.268 28.2008 11.576 28.3288 11.944C28.4568 12.304 28.5208 12.716 28.5208 13.18V13.48H23.9848C24.0008 13.72 24.0568 13.952 24.1528 14.176C24.2568 14.392 24.3888 14.584 24.5488 14.752C24.7088 14.912 24.8968 15.04 25.1128 15.136C25.3288 15.232 25.5648 15.28 25.8208 15.28C26.2288 15.28 26.5728 15.208 26.8528 15.064C27.1328 14.92 27.3848 14.708 27.6088 14.428L28.3168 14.98ZM27.5128 12.688C27.4968 12.208 27.3408 11.824 27.0448 11.536C26.7488 11.248 26.3408 11.104 25.8208 11.104C25.3008 11.104 24.8808 11.248 24.5608 11.536C24.2408 11.824 24.0488 12.208 23.9848 12.688H27.5128ZM29.7288 11.716C29.7288 11.46 29.7208 11.22 29.7048 10.996C29.6888 10.772 29.6808 10.568 29.6808 10.384H30.5688C30.5688 10.536 30.5728 10.688 30.5808 10.84C30.5888 10.992 30.5928 11.148 30.5928 11.308H30.6168C30.6808 11.172 30.7688 11.04 30.8808 10.912C31.0008 10.784 31.1408 10.672 31.3008 10.576C31.4608 10.472 31.6408 10.392 31.8408 10.336C32.0408 10.272 32.2568 10.24 32.4888 10.24C32.5528 10.24 32.6168 10.244 32.6808 10.252C32.7448 10.26 32.8088 10.276 32.8728 10.3L32.8128 11.248C32.6528 11.2 32.4848 11.176 32.3088 11.176C31.7328 11.176 31.3128 11.364 31.0488 11.74C30.7928 12.108 30.6648 12.616 30.6648 13.264V16H29.7288V11.716ZM38.5126 14.98C38.1766 15.412 37.8086 15.716 37.4086 15.892C37.0086 16.06 36.5446 16.144 36.0166 16.144C35.5766 16.144 35.1806 16.068 34.8286 15.916C34.4766 15.756 34.1766 15.544 33.9286 15.28C33.6886 15.016 33.5006 14.704 33.3646 14.344C33.2366 13.984 33.1726 13.6 33.1726 13.192C33.1726 12.76 33.2446 12.364 33.3886 12.004C33.5326 11.636 33.7326 11.324 33.9886 11.068C34.2446 10.804 34.5486 10.6 34.9006 10.456C35.2526 10.312 35.6366 10.24 36.0526 10.24C36.4446 10.24 36.8046 10.308 37.1326 10.444C37.4606 10.572 37.7406 10.764 37.9726 11.02C38.2126 11.268 38.3966 11.576 38.5246 11.944C38.6526 12.304 38.7166 12.716 38.7166 13.18V13.48H34.1806C34.1966 13.72 34.2526 13.952 34.3486 14.176C34.4526 14.392 34.5846 14.584 34.7446 14.752C34.9046 14.912 35.0926 15.04 35.3086 15.136C35.5246 15.232 35.7606 15.28 36.0166 15.28C36.4246 15.28 36.7686 15.208 37.0486 15.064C37.3286 14.92 37.5806 14.708 37.8046 14.428L38.5126 14.98ZM37.7086 12.688C37.6926 12.208 37.5366 11.824 37.2406 11.536C36.9446 11.248 36.5366 11.104 36.0166 11.104C35.4966 11.104 35.0766 11.248 34.7566 11.536C34.4366 11.824 34.2446 12.208 34.1806 12.688H37.7086ZM44.5926 15.004H44.5686C44.3926 15.324 44.1126 15.596 43.7286 15.82C43.3526 16.036 42.9126 16.144 42.4086 16.144C42.0166 16.144 41.6486 16.072 41.3046 15.928C40.9606 15.776 40.6606 15.568 40.4046 15.304C40.1566 15.04 39.9606 14.728 39.8166 14.368C39.6726 14.008 39.6006 13.616 39.6006 13.192C39.6006 12.768 39.6726 12.376 39.8166 12.016C39.9606 11.656 40.1606 11.344 40.4166 11.08C40.6726 10.816 40.9806 10.612 41.3406 10.468C41.7086 10.316 42.1126 10.24 42.5526 10.24C42.9606 10.24 43.3326 10.324 43.6686 10.492C44.0126 10.66 44.3126 10.896 44.5686 11.2H44.5926V6.928H45.5286V16H44.5926V15.004ZM44.5926 13.192C44.5926 12.896 44.5446 12.624 44.4486 12.376C44.3606 12.12 44.2286 11.9 44.0526 11.716C43.8766 11.524 43.6646 11.376 43.4166 11.272C43.1766 11.16 42.9046 11.104 42.6006 11.104C42.2966 11.104 42.0206 11.16 41.7726 11.272C41.5326 11.376 41.3246 11.524 41.1486 11.716C40.9726 11.9 40.8366 12.12 40.7406 12.376C40.6526 12.624 40.6086 12.896 40.6086 13.192C40.6086 13.488 40.6526 13.764 40.7406 14.02C40.8366 14.268 40.9726 14.488 41.1486 14.68C41.3246 14.864 41.5326 15.012 41.7726 15.124C42.0206 15.228 42.2966 15.28 42.6006 15.28C42.9046 15.28 43.1766 15.228 43.4166 15.124C43.6646 15.012 43.8766 14.864 44.0526 14.68C44.2286 14.488 44.3606 14.268 44.4486 14.02C44.5446 13.764 44.5926 13.488 44.5926 13.192ZM50.0723 6.928H51.0083V11.2H51.0323C51.2883 10.896 51.5843 10.66 51.9203 10.492C52.2643 10.324 52.6403 10.24 53.0483 10.24C53.4883 10.24 53.8883 10.316 54.2483 10.468C54.6163 10.612 54.9283 10.816 55.1843 11.08C55.4403 11.344 55.6403 11.656 55.7843 12.016C55.9283 12.376 56.0003 12.768 56.0003 13.192C56.0003 13.616 55.9283 14.008 55.7843 14.368C55.6403 14.728 55.4403 15.04 55.1843 15.304C54.9363 15.568 54.6403 15.776 54.2963 15.928C53.9523 16.072 53.5843 16.144 53.1923 16.144C52.6883 16.144 52.2443 16.036 51.8603 15.82C51.4843 15.596 51.2083 15.324 51.0323 15.004H51.0083V16H50.0723V6.928ZM51.0083 13.192C51.0083 13.488 51.0523 13.764 51.1403 14.02C51.2363 14.268 51.3723 14.488 51.5483 14.68C51.7243 14.864 51.9323 15.012 52.1723 15.124C52.4203 15.228 52.6963 15.28 53.0003 15.28C53.3043 15.28 53.5763 15.228 53.8163 15.124C54.0643 15.012 54.2763 14.864 54.4523 14.68C54.6283 14.488 54.7603 14.268 54.8483 14.02C54.9443 13.764 54.9923 13.488 54.9923 13.192C54.9923 12.896 54.9443 12.624 54.8483 12.376C54.7603 12.12 54.6283 11.9 54.4523 11.716C54.2763 11.524 54.0643 11.376 53.8163 11.272C53.5763 11.16 53.3043 11.104 53.0003 11.104C52.6963 11.104 52.4203 11.16 52.1723 11.272C51.9323 11.376 51.7243 11.524 51.5483 11.716C51.3723 11.9 51.2363 12.12 51.1403 12.376C51.0523 12.624 51.0083 12.896 51.0083 13.192ZM59.2803 17.284C59.1843 17.524 59.0843 17.74 58.9803 17.932C58.8843 18.132 58.7643 18.3 58.6203 18.436C58.4843 18.58 58.3163 18.688 58.1163 18.76C57.9243 18.84 57.6883 18.88 57.4083 18.88C57.2723 18.88 57.1283 18.872 56.9763 18.856C56.8323 18.84 56.6963 18.8 56.5683 18.736L56.6883 17.92C56.7843 17.96 56.8843 17.984 56.9883 17.992C57.0923 18.008 57.2123 18.016 57.3483 18.016C57.6523 18.016 57.8763 17.932 58.0203 17.764C58.1643 17.596 58.2883 17.372 58.3923 17.092L58.7763 16.036L56.4483 10.384H57.5403L59.2803 14.788H59.3043L60.9723 10.384H61.9923L59.2803 17.284Z" fill="#586CFF"/>
<path d="M67.1201 13.4427L69.171 13.3893C69.1984 13.9502 69.2531 14.5112 69.3898 15.0721L69.4718 15.3926L73.0541 16.7282L73.3276 16.5412C73.7925 16.194 74.23 15.82 74.6402 15.4194L76.1442 16.8083C76.1989 16.8618 76.2809 16.8618 76.3083 16.8083C76.3356 16.8083 76.3356 16.7816 76.3356 16.7549L76.9372 15.2057C77.1286 14.6981 77.1013 14.1372 76.8552 13.6564L76.4997 13.0153C77.8396 10.6914 78.7147 7.24565 77.2107 2.57115C77.1013 2.14376 76.6364 1.90336 76.1989 2.03692C76.1442 2.03692 76.0621 2.09034 76.0075 2.11705C71.7142 4.65464 70.0188 7.80659 69.4445 10.3976L68.7335 10.6647C68.2139 10.8517 67.8038 11.2524 67.6123 11.7599L67.0107 13.3091C66.9834 13.3626 67.0107 13.4427 67.0654 13.4694C67.0654 13.4427 67.0928 13.4427 67.1201 13.4427ZM72.89 7.80659C73.1908 7.05867 74.0386 6.68471 74.7769 6.97853C75.5426 7.27236 75.9254 8.10041 75.6246 8.82162C75.3238 9.54283 74.4761 9.94351 73.7378 9.64968C72.9721 9.38256 72.5892 8.55451 72.89 7.80659ZM69.1437 18.6781C68.8155 18.7049 68.4874 18.8117 68.2139 18.9987C68.1592 19.0521 68.1046 19.0521 68.0499 19.0254C67.9952 18.9987 67.9405 18.9453 67.9405 18.8651C67.9405 18.0638 68.1866 16.3543 70.2102 16.7549C70.2649 16.7816 70.2649 16.8083 70.2649 16.8618C69.9914 17.3693 69.9914 17.9569 70.2375 18.4645C70.2649 18.5179 70.3469 18.5446 70.4016 18.5179C70.9212 18.3042 71.3313 17.8501 71.4954 17.3159C71.5228 17.2624 71.5501 17.2357 71.6048 17.2624H71.6321C71.9603 17.4227 72.9174 17.9569 72.6166 19.0254C72.4799 19.4795 72.1791 19.8535 71.7689 20.0939C71.1673 20.4411 70.1008 21.1356 69.8547 21.8835C69.8273 21.9904 69.7179 22.0171 69.6359 21.9904C69.6086 21.9904 69.5812 21.9637 69.5539 21.9369C69.089 21.4828 68.2686 20.361 69.1437 18.6781Z" fill="#586CFF"/>
</svg>
