<svg width="63" height="18" viewBox="0 0 63 18" fill="none" xmlns="http://www.w3.org/2000/svg">
<path d="M21.7576 9.99136C21.221 9.69422 20.9386 9.45367 20.9386 9.11408C20.9386 8.67543 21.3199 8.40658 21.927 8.40658C22.6329 8.40658 23.2542 8.70373 23.2542 8.70373L23.7484 7.1897C23.7484 7.1897 23.2966 6.83595 21.9552 6.83595C20.0915 6.83595 18.7925 7.91134 18.7925 9.41122C18.7925 10.2602 19.3996 10.9111 20.2044 11.378C20.8539 11.7459 21.0798 12.0148 21.0798 12.3968C21.0798 12.8072 20.7551 13.1326 20.148 13.1326C19.2443 13.1326 18.3972 12.6657 18.3972 12.6657L17.8748 14.1797C17.8748 14.1797 18.6654 14.7033 19.9785 14.7033C21.8987 14.7033 23.2683 13.7552 23.2683 12.0572C23.2966 11.1234 22.5906 10.4725 21.7576 9.99136Z" fill="#586CFF"/>
<path d="M29.4103 6.80764C28.4643 6.80764 27.7301 7.26044 27.1512 7.93963L27.123 7.92548L27.9419 3.62393H25.7957L23.7202 14.5618H25.8522L26.5582 10.8262C26.8406 9.41121 27.5606 8.54807 28.2384 8.54807C28.7184 8.54807 28.902 8.87352 28.902 9.34046C28.902 9.63761 28.8737 9.99136 28.8031 10.2885L27.9983 14.5759H30.1303L30.9634 10.1612C31.0622 9.69421 31.1187 9.14237 31.1187 8.76032C31.1469 7.52929 30.5257 6.80764 29.4103 6.80764Z" fill="#586CFF"/>
<path d="M35.9756 6.80763C33.4059 6.80763 31.6974 9.1282 31.6974 11.7176C31.6974 13.3732 32.714 14.7174 34.6343 14.7174C37.1616 14.7174 38.8559 12.4534 38.8559 9.8074C38.87 8.26506 37.9805 6.80763 35.9756 6.80763ZM34.9308 13.0619C34.1966 13.0619 33.9001 12.4393 33.9001 11.661C33.9001 10.43 34.5354 8.43486 35.6932 8.43486C36.4556 8.43486 36.6957 9.08576 36.6957 9.7225C36.6957 11.0526 36.0603 13.0619 34.9308 13.0619Z" fill="#586CFF"/>
<path d="M44.3342 6.80763C42.8941 6.80763 42.0752 8.08112 42.0752 8.08112H42.0469L42.174 6.93498H40.282C40.1832 7.71322 40.0138 8.88766 39.8443 9.7791L38.3618 17.5898H40.4938L41.0868 14.4202H41.1292C41.1292 14.4202 41.5669 14.7032 42.3858 14.7032C44.899 14.7032 46.5368 12.128 46.5368 9.5244C46.5368 8.09527 45.9015 6.80763 44.3342 6.80763ZM42.3011 13.1043C41.7504 13.1043 41.4257 12.793 41.4257 12.793L41.7787 10.7979C42.0328 9.4678 42.7247 8.57636 43.4589 8.57636C44.1083 8.57636 44.306 9.1848 44.306 9.7508C44.306 11.1233 43.4871 13.1043 42.3011 13.1043Z" fill="#586CFF"/>
<path d="M49.5865 3.73709C48.9088 3.73709 48.3582 4.27478 48.3582 4.98228C48.3582 5.61902 48.7535 6.05766 49.3606 6.05766H49.3889C50.0525 6.05766 50.6314 5.60487 50.6455 4.81248C50.6596 4.17574 50.236 3.73709 49.5865 3.73709Z" fill="#586CFF"/>
<path d="M46.5931 14.5618H48.7393L50.1935 6.97746H48.0333L46.5931 14.5618Z" fill="#586CFF"/>
<path d="M55.6154 6.96328H54.1329L54.2035 6.60953C54.3305 5.87374 54.7541 5.22285 55.4742 5.22285C55.8554 5.22285 56.1519 5.33605 56.1519 5.33605L56.5755 3.66637C56.5755 3.66637 56.2084 3.48242 55.4177 3.48242C54.6553 3.48242 53.907 3.69467 53.3281 4.18991C52.5939 4.81251 52.255 5.70394 52.0856 6.60953L52.0291 6.96328H51.0407L50.7301 8.57636H51.7185L50.5889 14.5617H52.7209L53.8505 8.57636H55.3189L55.6154 6.96328Z" fill="#586CFF"/>
<path d="M60.755 6.97746C60.755 6.97746 59.4136 10.3451 58.8206 12.1846H58.7924C58.75 11.5903 58.27 6.97746 58.27 6.97746H56.025L57.3099 13.9392C57.3381 14.0948 57.324 14.1939 57.2675 14.2929C57.0134 14.774 56.6039 15.241 56.1097 15.5806C55.7144 15.8777 55.2626 16.0617 54.9096 16.189L55.5026 18.0002C55.9403 17.9011 56.8298 17.5474 57.5923 16.8399C58.5665 15.9202 59.4701 14.5193 60.3879 12.5949L62.9999 6.97746H60.755Z" fill="#586CFF"/>
<path d="M10.5188 2.05318C10.5188 2.05318 10.3212 2.10978 9.99641 2.20883C9.93994 2.02488 9.85522 1.81263 9.74227 1.58623C9.37517 0.878741 8.82452 0.496696 8.17503 0.496696C8.13268 0.496696 8.09032 0.496696 8.03384 0.510846C8.01972 0.482546 7.99148 0.468396 7.97736 0.440096C7.69498 0.1288 7.32788 -0.0126981 6.89018 0.00145172C6.04303 0.0297514 5.19588 0.638194 4.51815 1.72773C4.0381 2.49182 3.671 3.45401 3.57216 4.20395C2.59794 4.5011 1.92022 4.71334 1.9061 4.72749C1.41192 4.88314 1.3978 4.89729 1.34133 5.36424C1.29897 5.71798 0 15.6795 0 15.6795L10.6741 17.5331V2.03903C10.5894 2.03903 10.5471 2.05318 10.5188 2.05318ZM8.04796 2.81727C7.48319 2.98707 6.86195 3.18516 6.25482 3.36911C6.42425 2.70407 6.76311 2.03903 7.15845 1.60038C7.31376 1.44473 7.52555 1.26079 7.76558 1.14759C8.0056 1.65698 8.06208 2.35032 8.04796 2.81727ZM6.89018 0.581595C7.08785 0.581595 7.25728 0.624044 7.39848 0.708943C7.17257 0.822142 6.94666 1.00609 6.73487 1.21834C6.19834 1.79848 5.78888 2.70407 5.61945 3.56721C5.11116 3.72286 4.60287 3.8785 4.13693 4.02C4.44756 2.66162 5.59121 0.609894 6.89018 0.581595ZM5.25235 8.364C5.30883 9.26959 7.69498 9.46769 7.83617 11.6043C7.93501 13.2881 6.94666 14.4343 5.52062 14.5192C3.79807 14.6324 2.85208 13.6136 2.85208 13.6136L3.21918 12.0571C3.21918 12.0571 4.16517 12.7787 4.92761 12.7221C5.42178 12.6938 5.60533 12.2835 5.59121 12.0005C5.52062 10.8119 3.57216 10.8827 3.44509 8.92999C3.33214 7.28861 4.4052 5.63308 6.77723 5.47744C7.69498 5.42084 8.16091 5.64723 8.16091 5.64723L7.62438 7.68481C7.62438 7.68481 7.01726 7.40181 6.29718 7.45841C5.25235 7.52916 5.23823 8.1942 5.25235 8.364ZM8.61273 2.64747C8.61273 2.22297 8.55625 1.61453 8.35858 1.10514C9.00807 1.23249 9.31869 1.95413 9.45988 2.39277C9.20574 2.46352 8.92335 2.54842 8.61273 2.64747Z" fill="#586CFF"/>
<path d="M10.999 17.5049L15.4324 16.4012C15.4324 16.4012 13.5263 3.48241 13.5122 3.39751C13.4981 3.31261 13.4275 3.25601 13.3569 3.25601C13.2863 3.25601 12.0438 3.22771 12.0438 3.22771C12.0438 3.22771 11.2813 2.49192 10.999 2.20892V17.5049Z" fill="#586CFF"/>
</svg>
