<svg width="15" height="15" viewBox="0 0 15 15" fill="none" xmlns="http://www.w3.org/2000/svg">
<path d="M2.23637 1.12569L4.86298 2.52155C5.35829 2.79171 5.76353 3.46713 5.76353 4.02247V11.5721H9.1256C9.42578 11.5721 9.66593 11.3319 9.66593 11.0318V8.52523C9.66593 8.24005 9.89107 8.01491 10.1762 8.01491H10.2813C10.5665 8.01491 10.7916 8.24005 10.7916 8.52523V11.6922C10.7916 12.2625 10.3263 12.7128 9.77099 12.7128H5.77854V14.3488C5.77854 14.9191 5.37329 15.1593 4.87799 14.8891L0.57035 12.6077C0.555341 12.5927 0.525322 12.5927 0.510313 12.5777L0.37523 12.4726C0.150092 12.2775 0 12.0074 0 11.6772V1.02063C0 0.465285 0.450276 0 1.02063 0H9.77099C10.3413 0 10.7916 0.465285 10.7916 1.02063V4.18757C10.7916 4.47274 10.5665 4.69788 10.2813 4.69788H10.1762C9.89107 4.69788 9.66593 4.47274 9.66593 4.18757V1.68103C9.66593 1.38085 9.42578 1.1407 9.1256 1.1407H2.23637V1.12569ZM11.7822 7.15939H9.05055C8.60027 7.15939 8.22504 6.79917 8.22504 6.33388C8.22504 5.88361 8.58526 5.50838 9.05055 5.50838H11.7822V4.80295C11.7822 4.2326 12.1575 4.03748 12.6227 4.36768L14.604 5.74852C15.0692 6.07873 15.0692 6.60405 14.604 6.91924L12.6227 8.30009C12.1575 8.63029 11.7822 8.42016 11.7822 7.86482V7.15939Z" fill="#74869C"/>
</svg>
