<svg width="18" height="18" viewBox="0 0 18 18" fill="none" xmlns="http://www.w3.org/2000/svg">
<path fill-rule="evenodd" clip-rule="evenodd" d="M10.6976 2.13952C11.3882 2.30856 12.0402 2.58385 12.6343 2.94124L14.0542 1.89321C14.2426 1.75798 14.4937 1.77247 14.6579 1.93668L16.0537 3.33244C16.2179 3.49665 16.2372 3.75262 16.0971 3.93614L15.0443 5.35605C15.4017 5.95009 15.677 6.60209 15.846 7.29273L17.5943 7.55353C17.8213 7.58734 17.9903 7.78052 17.9903 8.01234V9.98766C17.9903 10.2195 17.8213 10.4127 17.5943 10.4465L15.846 10.7073C15.677 11.3979 15.4017 12.0499 15.0443 12.6439L16.0971 14.0639C16.2372 14.2522 16.2179 14.5034 16.0537 14.6676L14.6579 16.0633C14.4937 16.2275 14.2377 16.2468 14.0542 16.1068L12.6343 15.0539C12.0402 15.4113 11.3882 15.6866 10.6976 15.8556L10.4368 17.604C10.403 17.831 10.2098 18 9.978 18H8.00268C7.77086 18 7.57768 17.831 7.54387 17.604L7.28307 15.8556C6.59243 15.6866 5.94043 15.4113 5.34639 15.0539L3.92648 16.1068C3.74296 16.2468 3.48699 16.2275 3.32278 16.0633L1.92702 14.6676C1.76281 14.5034 1.74349 14.2474 1.88355 14.0639L2.94607 12.6343C2.58868 12.0402 2.31339 11.3882 2.14435 10.6976L0.396029 10.4368C0.169037 10.403 0 10.2098 0 9.978V8.00268C0 7.77086 0.169037 7.57768 0.396029 7.54387L2.14435 7.28307C2.31339 6.59243 2.58868 5.94043 2.94607 5.34639L1.89321 3.93614C1.75798 3.75262 1.77247 3.49665 1.93668 3.33244L3.33244 1.93668C3.49665 1.77247 3.75262 1.75315 3.93614 1.89321L5.35605 2.94607C5.95009 2.58868 6.60209 2.31339 7.29273 2.14435L7.55353 0.396029C7.58251 0.169037 7.77569 0 8.00751 0H9.98283C10.2146 0 10.4078 0.169037 10.4416 0.396029L10.6976 2.13952ZM8.99275 5.20633C11.084 5.20633 12.784 6.90153 12.784 8.99759C12.784 11.0936 11.0888 12.7888 8.99275 12.7888C6.8967 12.7888 5.2015 11.0936 5.2015 8.99759C5.2015 6.90153 6.90153 5.20633 8.99275 5.20633Z" fill="#74869C"/>
</svg>
